# xmcd
#
# Track frame offsets:
#	150
#	18898
#	35130
#	52730
#	68795
#	85673
#	102958
#	120670
#	133627
#	152675
#	165543
#	182120
#	201849
#	216156
#	232600
#	244575
#	259442
#	279038
#	294713
#	314179
#
# Disc length: 4406 seconds
#
# Revision: 3
# Processed by: cddbd v1.5.2PL0 Copyright (c) Steve Scherf et al.
# Submitted via: EZCDAudioConverter 2.4.0.1
#
DISCID=17113414
DTITLE=Kenny Rogers - Through The Years - 20 Greatest Hits
DYEAR=2001
DGENRE=Country
TTITLE0=Kenny Rogers with Dolly Parton - Island In The Stream
TTITLE1=Kenny Rogers - Lucille
TTITLE2=Kenny Rogers - Lady
TTITLE3=Kenny Rogers - Gambler
TTITLE4=Kenny Rogers - Love Lifted Me
TTITLE5=Kenny Rogers with Sheena Easton - We've Got Tonite
TTITLE6=Kenny Rogers - Scarlet Fever
TTITLE7=Kenny Rogers - Love Or Something Like It
TTITLE8=Kenny Rogers - She Believes In Me
TTITLE9=Kenny Rogers - Ruby Don't Take Your Love To Town
TTITLE10=Kenny Rogers with Kim Carnes - Don't Fall In Love With a Dreamer
TTITLE11=Kenny Rogers - Through The Years
TTITLE12=Kenny Rogers - Daytime Friends
TTITLE13=Kenny Rogers - You Decorated My Life
TTITLE14=Kenny Rogers - Reuben James
TTITLE15=Kenny Rogers with Dottie West - 'Til I Can Make It On My Own
TTITLE16=Kenny Rogers - Coward Of The County
TTITLE17=Kenny Rogers - I Don't Need You
TTITLE18=Kenny Rogers - Something's Burning
TTITLE19=Kenny Rogers - Love Will Turn You Around
EXTD=
EXTT0=
EXTT1=
EXTT2=
EXTT3=
EXTT4=
EXTT5=
EXTT6=
EXTT7=
EXTT8=
EXTT9=
EXTT10=
EXTT11=
EXTT12=
EXTT13=
EXTT14=
EXTT15=
EXTT16=
EXTT17=
EXTT18=
EXTT19=
PLAYORDER=
